/* XPM */
const char * zero_xpm[] = {
"15 15 2 1",
" 	c #FF00FF",
".	c #000000",
"    ......     ",
"    ......     ",
"    ......     ",
" ...      ...  ",
" ...      ...  ",
" ...      ...  ",
" ...      ...  ",
" ...      ...  ",
" ...      ...  ",
" ...      ...  ",
" ...      ...  ",
" ...      ...  ",
"    ......     ",
"    ......     ",
"    ......     "};

/* XPM */
const char * one_xpm[] = {
"15 15 2 1",
" 	c #FF00FF",
".	c #000000",
"      ...      ",
"      ...      ",
"      ...      ",
"   ......      ",
"   ......      ",
"   ......      ",
"      ...      ",
"      ...      ",
"      ...      ",
"      ...      ",
"      ...      ",
"      ...      ",
"   .........   ",
"   .........   ",
"   .........   "};

/* XPM */
const char * two_xpm[] = {
"15 15 2 1",
" 	c #FF00FF",
".	c #000000",
"    ......     ",
"    ......     ",
"    ......     ",
" ...      ...  ",
" ...      ...  ",
" ...      ...  ",
"       ...     ",
"       ...     ",
"       ...     ",
"    ...        ",
"    ...        ",
"    ...        ",
" ............  ",
" ............  ",
" ............  "};

/* XPM */
const char * three_xpm[] = {
"15 15 2 1",
" 	c #FF00FF",
".	c #000000",
"    ......     ",
"    ......     ",
"    ......     ",
" ...      ...  ",
" ...      ...  ",
" ...      ...  ",
"       ...     ",
"       ...     ",
"       ...     ",
" ...      ...  ",
" ...      ...  ",
" ...      ...  ",
"    ......     ",
"    ......     ",
"    ......     "};

/* XPM */
const char * four_xpm[] = {
"15 15 2 1",
" 	c #FF00FF",
".	c #000000",
"       ...     ",
"       ...     ",
"       ...     ",
"    ......     ",
"    ......     ",
"    ......     ",
" ...   ...     ",
" ...   ...     ",
" ...   ...     ",
" ............  ",
" ............  ",
" ............  ",
"       ...     ",
"       ...     ",
"       ...     "};

/* XPM */
const char * five_xpm[] = {
"15 15 2 1",
" 	c #FF00FF",
".	c #000000",
" ............  ",
" ............  ",
" ............  ",
" ...           ",
" ...           ",
" ...           ",
" .........     ",
" .........     ",
" .........     ",
"          ...  ",
"          ...  ",
"          ...  ",
" .........     ",
" .........     ",
" .........     "};

/* XPM */
const char * six_xpm[] = {
"15 15 2 1",
" 	c #FF00FF",
".	c #000000",
"    ......     ",
"    ......     ",
"    ......     ",
" ...           ",
" ...           ",
" ...           ",
" .........     ",
" .........     ",
" .........     ",
" ...      ...  ",
" ...      ...  ",
" ...      ...  ",
"    ......     ",
"    ......     ",
"    ......     "};

/* XPM */
const char * seven_xpm[] = {
"15 15 2 1",
" 	c #FF00FF",
".	c #000000",
" .........     ",
" .........     ",
" .........     ",
"          ...  ",
"          ...  ",
"          ...  ",
"          ...  ",
"          ...  ",
"          ...  ",
"       ...     ",
"       ...     ",
"       ...     ",
"       ...     ",
"       ...     ",
"       ...     "};

/* XPM */
const char * eight_xpm[] = {
"15 15 2 1",
" 	c #FF00FF",
".	c #000000",
"    ......     ",
"    ......     ",
"    ......     ",
" ...      ...  ",
" ...      ...  ",
" ...      ...  ",
"    ......     ",
"    ......     ",
"    ......     ",
" ...      ...  ",
" ...      ...  ",
" ...      ...  ",
"    ......     ",
"    ......     ",
"    ......     "};

/* XPM */
const char * nine_xpm[] = {
"15 15 2 1",
" 	c #FF00FF",
".	c #000000",
"    ......     ",
"    ......     ",
"    ......     ",
" ...      ...  ",
" ...      ...  ",
" ...      ...  ",
"    .........  ",
"    .........  ",
"    .........  ",
"          ...  ",
"          ...  ",
"          ...  ",
"       ...     ",
"       ...     ",
"       ...     "};
/* XPM */
const char * a_xpm[] = {
"16 16 2 1",
" 	c #FF00FF",
".	c #000000",
"     ......     ",
"     ......     ",
"     ......     ",
"  ...      ...  ",
"  ...      ...  ",
"  ...      ...  ",
"  ............  ",
"  ............  ",
"  ............  ",
"  ...      ...  ",
"  ...      ...  ",
"  ...      ...  ",
"  ...      ...  ",
"  ...      ...  ",
"  ...      ...  ",
"  ...      ...  "};
/* XPM */
const char * b_xpm[] = {
"16 16 2 1",
" 	c #FF00FF",
".	c #000000",
"  .........     ",
"  .........     ",
"  .........     ",
"  ...      ...  ",
"  ...      ...  ",
"  ...      ...  ",
"  .........     ",
"  .........     ",
"  .........     ",
"  ...      ...  ",
"  ...      ...  ",
"  ...      ...  ",
"  ...      ...  ",
"  .........     ",
"  .........     ",
"  .........     "};
/* XPM */
const char * c_xpm[] = {
"16 16 2 1",
" 	c #FF00FF",
".	c #000000",
"     ......     ",
"     ......     ",
"     ......     ",
"  ...      ...  ",
"  ...      ...  ",
"  ...      ...  ",
"  ...           ",
"  ...           ",
"  ...           ",
"  ...           ",
"  ...      ...  ",
"  ...      ...  ",
"  ...      ...  ",
"     ......     ",
"     ......     ",
"     ......     "};
/* XPM */
const char * colon_xpm[] = {
"16 16 2 1",
" 	c #FF00FF",
".	c #000000",
"                ",
"                ",
"                ",
"     ......     ",
"     ......     ",
"     ......     ",
"                ",
"                ",
"                ",
"                ",
"     ......     ",
"     ......     ",
"     ......     ",
"                ",
"                ",
"                "};
/* XPM */
const char * d_xpm[] = {
"16 16 2 1",
" 	c #FF00FF",
".	c #000000",
"  .........     ",
"  .........     ",
"  .........     ",
"  ...      ...  ",
"  ...      ...  ",
"  ...      ...  ",
"  ...      ...  ",
"  ...      ...  ",
"  ...      ...  ",
"  ...      ...  ",
"  ...      ...  ",
"  ...      ...  ",
"  ...      ...  ",
"  .........     ",
"  .........     ",
"  .........     "};
/* XPM */
const char * e_xpm[] = {
"16 16 2 1",
" 	c #FF00FF",
".	c #000000",
"  ............  ",
"  ............  ",
"  ............  ",
"  ...           ",
"  ...           ",
"  ...           ",
"  .........     ",
"  .........     ",
"  .........     ",
"  ...           ",
"  ...           ",
"  ...           ",
"  ...           ",
"  ............  ",
"  ............  ",
"  ............  "};
/* XPM */
const char * f_xpm[] = {
"16 16 2 1",
" 	c #FF00FF",
".	c #000000",
"  ............  ",
"  ............  ",
"  ............  ",
"  ...           ",
"  ...           ",
"  ...           ",
"  ...           ",
"  .........     ",
"  .........     ",
"  .........     ",
"  ...           ",
"  ...           ",
"  ...           ",
"  ...           ",
"  ...           ",
"  ...           "};
/* XPM */
const char * g_xpm[] = {
"16 16 2 1",
" 	c #FF00FF",
".	c #000000",
"     ......     ",
"     ......     ",
"     ......     ",
"  ...           ",
"  ...           ",
"  ...           ",
"  ...   ......  ",
"  ...   ......  ",
"  ...   ......  ",
"  ...      ...  ",
"  ...      ...  ",
"  ...      ...  ",
"  ...      ...  ",
"     ......     ",
"     ......     ",
"     ......     "};
/* XPM */
const char * h_xpm[] = {
"16 16 2 1",
" 	c #FF00FF",
".	c #000000",
"  ...      ...  ",
"  ...      ...  ",
"  ...      ...  ",
"  ...      ...  ",
"  ...      ...  ",
"  ...      ...  ",
"  ............  ",
"  ............  ",
"  ............  ",
"  ...      ...  ",
"  ...      ...  ",
"  ...      ...  ",
"  ...      ...  ",
"  ...      ...  ",
"  ...      ...  ",
"  ...      ...  "};
/* XPM */
const char * hyphen_xpm[] = {
"16 16 2 1",
" 	c #FF00FF",
".	c #000000",
"                ",
"                ",
"                ",
"                ",
"                ",
"                ",
"  ............  ",
"  ............  ",
"  ............  ",
"                ",
"                ",
"                ",
"                ",
"                ",
"                ",
"                "};
/* XPM */
const char * i_xpm[] = {
"16 16 2 1",
" 	c #FF00FF",
".	c #000000",
"   .........    ",
"   .........    ",
"   .........    ",
"      ...       ",
"      ...       ",
"      ...       ",
"      ...       ",
"      ...       ",
"      ...       ",
"      ...       ",
"      ...       ",
"      ...       ",
"      ...       ",
"   .........    ",
"   .........    ",
"   .........    "};
/* XPM */
const char * j_xpm[] = {
"16 16 2 1",
" 	c #FF00FF",
".	c #000000",
"           ...  ",
"           ...  ",
"           ...  ",
"           ...  ",
"           ...  ",
"           ...  ",
"           ...  ",
"           ...  ",
"           ...  ",
"  ...      ...  ",
"  ...      ...  ",
"  ...      ...  ",
"  ...      ...  ",
"     ......     ",
"     ......     ",
"     ......     "};
/* XPM */
const char * k_xpm[] = {
"16 16 2 1",
" 	c #FF00FF",
".	c #000000",
"  ...      ...  ",
"  ...      ...  ",
"  ...      ...  ",
"  ...   ...     ",
"  ...   ...     ",
"  ...   ...     ",
"  ......        ",
"  ......        ",
"  ......        ",
"  ......        ",
"  ...   ...     ",
"  ...   ...     ",
"  ...   ...     ",
"  ...      ...  ",
"  ...      ...  ",
"  ...      ...  "};
/* XPM */
const char * l_xpm[] = {
"16 16 2 1",
" 	c #FF00FF",
".	c #000000",
"  ...           ",
"  ...           ",
"  ...           ",
"  ...           ",
"  ...           ",
"  ...           ",
"  ...           ",
"  ...           ",
"  ...           ",
"  ...           ",
"  ...           ",
"  ...           ",
"  ...           ",
"  ............  ",
"  ............  ",
"  ............  "};
/* XPM */
const char * m_xpm[] = {
"16 16 2 1",
" 	c #FF00FF",
".	c #000000",
"...         ... ",
"...         ... ",
"...         ... ",
"......   ...... ",
"......   ...... ",
"......   ...... ",
"...   ...   ... ",
"...   ...   ... ",
"...   ...   ... ",
"...         ... ",
"...         ... ",
"...         ... ",
"...         ... ",
"...         ... ",
"...         ... ",
"...         ... "};
/* XPM */
const char * n_xpm[] = {
"16 16 2 1",
" 	c #FF00FF",
".	c #000000",
"  ...      ...  ",
"  ...      ...  ",
"  ...      ...  ",
"  ...      ...  ",
"  ......   ...  ",
"  ......   ...  ",
"  ......   ...  ",
"  ...   ......  ",
"  ...   ......  ",
"  ...   ......  ",
"  ...      ...  ",
"  ...      ...  ",
"  ...      ...  ",
"  ...      ...  ",
"  ...      ...  ",
"  ...      ...  "};
/* XPM */
const char * o_xpm[] = {
"16 16 2 1",
" 	c #FF00FF",
".	c #000000",
"     ......     ",
"     ......     ",
"     ......     ",
"  ...      ...  ",
"  ...      ...  ",
"  ...      ...  ",
"  ...      ...  ",
"  ...      ...  ",
"  ...      ...  ",
"  ...      ...  ",
"  ...      ...  ",
"  ...      ...  ",
"  ...      ...  ",
"     ......     ",
"     ......     ",
"     ......     "};
/* XPM */
const char * p_xpm[] = {
"16 16 2 1",
" 	c #FF00FF",
".	c #000000",
"  .........     ",
"  .........     ",
"  .........     ",
"  ...      ...  ",
"  ...      ...  ",
"  ...      ...  ",
"  .........     ",
"  .........     ",
"  .........     ",
"  ...           ",
"  ...           ",
"  ...           ",
"  ...           ",
"  ...           ",
"  ...           ",
"  ...           "};
/* XPM */
const char * q_xpm[] = {
"16 16 2 1",
" 	c #FF00FF",
".	c #000000",
"     ......     ",
"     ......     ",
"     ......     ",
"  ...      ...  ",
"  ...      ...  ",
"  ...      ...  ",
"  ...      ...  ",
"  ...      ...  ",
"  ...      ...  ",
"  ...      ...  ",
"  ...   ...     ",
"  ...   ...     ",
"  ...   ...     ",
"     ...   ...  ",
"     ...   ...  ",
"     ...   ...  "};
/* XPM */
const char * r_xpm[] = {
"16 16 2 1",
" 	c #FF00FF",
".	c #000000",
"  .........     ",
"  .........     ",
"  .........     ",
"  ...      ...  ",
"  ...      ...  ",
"  ...      ...  ",
"  .........     ",
"  .........     ",
"  .........     ",
"  ...   ...     ",
"  ...   ...     ",
"  ...   ...     ",
"  ...   ...     ",
"  ...      ...  ",
"  ...      ...  ",
"  ...      ...  "};
/* XPM */
const char * space_xpm[] = {
"16 16 2 1",
" 	c #FF00FF",
".	c #FF00FF",
"  ............  ",
"  ............  ",
"  ............  ",
"        ...     ",
"        ...     ",
"        ...     ",
"     ...        ",
"     ...        ",
"     ...        ",
"  ...           ",
"  ...           ",
"  ...           ",
"  ...           ",
"  ............  ",
"  ............  ",
"  ............  "};
/* XPM */
const char * s_xpm[] = {
"16 16 2 1",
" 	c #FF00FF",
".	c #000000",
"     .........  ",
"     .........  ",
"     .........  ",
"  ...           ",
"  ...           ",
"  ...           ",
"     ......     ",
"     ......     ",
"     ......     ",
"           ...  ",
"           ...  ",
"           ...  ",
"           ...  ",
"  .........     ",
"  .........     ",
"  .........     "};
/* XPM */
const char * t_xpm[] = {
"16 16 2 1",
" 	c #FF00FF",
".	c #000000",
" .............  ",
" .............  ",
" .............  ",
"      ...       ",
"      ...       ",
"      ...       ",
"      ...       ",
"      ...       ",
"      ...       ",
"      ...       ",
"      ...       ",
"      ...       ",
"      ...       ",
"      ...       ",
"      ...       ",
"      ...       "};
/* XPM */
const char * u_xpm[] = {
"16 16 2 1",
" 	c #FF00FF",
".	c #000000",
"  ...      ...  ",
"  ...      ...  ",
"  ...      ...  ",
"  ...      ...  ",
"  ...      ...  ",
"  ...      ...  ",
"  ...      ...  ",
"  ...      ...  ",
"  ...      ...  ",
"  ...      ...  ",
"  ...      ...  ",
"  ...      ...  ",
"  ...      ...  ",
"     ......     ",
"     ......     ",
"     ......     "};
/* XPM */
const char * v_xpm[] = {
"16 16 2 1",
" 	c #FF00FF",
".	c #000000",
"...         ... ",
"...         ... ",
"...         ... ",
"...         ... ",
"...         ... ",
"...         ... ",
"...         ... ",
"   ...   ...    ",
"   ...   ...    ",
"   ...   ...    ",
"   ...   ...    ",
"   ...   ...    ",
"   ...   ...    ",
"      ...       ",
"      ...       ",
"      ...       "};
/* XPM */
const char * w_xpm[] = {
"16 16 2 1",
" 	c #FF00FF",
".	c #000000",
"...         ... ",
"...         ... ",
"...         ... ",
"...         ... ",
"...         ... ",
"...         ... ",
"...         ... ",
"...   ...   ... ",
"...   ...   ... ",
"...   ...   ... ",
"......   ...... ",
"......   ...... ",
"......   ...... ",
"...         ... ",
"...         ... ",
"...         ... "};
/* XPM */
const char * x_xpm[] = {
"16 16 2 1",
" 	c #FF00FF",
".	c #000000",
"  ...      ...  ",
"  ...      ...  ",
"  ...      ...  ",
"  ...      ...  ",
"  ...      ...  ",
"  ...      ...  ",
"     ......     ",
"     ......     ",
"     ......     ",
"  ...      ...  ",
"  ...      ...  ",
"  ...      ...  ",
"  ...      ...  ",
"  ...      ...  ",
"  ...      ...  ",
"  ...      ...  "};
/* XPM */
const char * y_xpm[] = {
"16 16 2 1",
" 	c #FF00FF",
".	c #000000",
"...         ... ",
"...         ... ",
"...         ... ",
"...         ... ",
"...         ... ",
"...         ... ",
"   .........    ",
"   .........    ",
"   .........    ",
"      ...       ",
"      ...       ",
"      ...       ",
"      ...       ",
"      ...       ",
"      ...       ",
"      ...       "};
/* XPM */
const char * z_xpm[] = {
"16 16 2 1",
" 	c #FF00FF",
".	c #000000",
"  ............  ",
"  ............  ",
"  ............  ",
"        ...     ",
"        ...     ",
"        ...     ",
"     ...        ",
"     ...        ",
"     ...        ",
"  ...           ",
"  ...           ",
"  ...           ",
"  ...           ",
"  ............  ",
"  ............  ",
"  ............  "};
