/* XPM */
const char *close_button_xpm[] = {
/* columns rows colors chars-per-pixel */
"45 45 24 1 ",
"  c #FF00FF",
". c #190C16",
"X c #171518",
"o c #141328",
"O c #520C0C",
"+ c #571718",
"@ c #661917",
"# c #872B26",
"$ c #952C26",
"% c #8A2D32",
"& c #A33C23",
"* c #A73B26",
"= c #AE3E28",
"- c #AB442B",
"; c #B74C34",
": c #C75A36",
"> c #DB6C34",
", c #E2692E",
"< c #E26A35",
"1 c #CA6147",
"2 c #C86945",
"3 c #EA8955",
"4 c #EB9558",
"5 c #EC956E",
/* pixels */
"     XoXXXXX.XXXXXXXXXXXXXXXX....X..XX.X     ",
"   XXXoXXXXX.XXXXXXXXXXXXXXXX....X..XX.XXX   ",
"  XXXX.XX..X....XXXXXXXXXXXXXXXX.XXXXXoXXXX  ",
" XXXXXX@@@@@@+++@+++O+++++O++OO+++@@@+XXXXXX ",
" XXXX$####$####################$#%$%%%$$XXXX ",
"...X#=;--$O$=---=-=-----===--=;&=$O$&&&=#X...",
".o.X#;1:$OXO$=11::111111111::::=$OXO$:2;#X.oo",
"XXX@#-:$O.XXO$=1<,<<<<<<<<<<<1=$OXXXO$:-#@XXX",
"XXX@#-$OX.oXXO$=1><<<<<,<<<<1=$OXXXXXO$-#@XXX",
".X.@#$OXXX1XXXO$=1<3333343<1=$OXXX1X..O$#@.XX",
".X.@$OXXX151..oO$=1<35553<1=$Oo..151oXXO$@.XX",
"XXX@#$OXXX151.XXO$=1<353<1=$OXX.151XXXO$#@XXX",
"...@#=$OXXX151XXXO$=1<3<1=$OXXX151XXXO$=#@...",
".X.+#-=$O..o151.XXO$=1<1=$OXX.151o..O$=-#+.XX",
".X.+#-1=$O.XX151X.XO$=1=$OX.X151XX.O$=1-#+.XX",
".X.+#-11=$OXXX151.XXO$=$OXX.151XXXO$=11-#+.XX",
"XXX@#=:<1=$O.XX151.XXO$OXX.151XX.O$=1<:=#@XXX",
"XXX+#-:,>1=$OX.X151XXXOXXX151X.XO$=1>,:-#+XXX",
"XXX+#=1<<<1=$O.XX151XXXXX151XX.O$=1<<<1=#+XXX",
"XXX+#-1<<3<1=$O.XX151XXX151XX.O$=1<3<<1-#+XXX",
"XXXO#-1<<33<1=$OXXX151X151XXXO$=1<33<<1-#OXXX",
"XXX+#-1<<353<1=$OXXX15151XXXO$=1<353<<1-#+XXX",
"XXX+#-1<<3553<1=$OXXX151XXXO$=1<3553<<1-#+XXX",
"XXX+#-1<,353<1=$OXXX15151XXXO$=1<353,<1-#+XXX",
"XXX+#=1<<43<1=$O..X151X151X..O$=1<34<<1=#+XXX",
"XXX+#=1<<3<1=$O..X151XXX151X..O$=1<3<<1=#+XXX",
"XXXO#=1<<<1=$OX.X151XXXXX151X.XO$=1<<<1=#OXXX",
"XXX+#-:<<1=$O..X151..XOX..151X..O$=1<<:-#+XXX",
"XXX+#-:<1=$OX.X151..XO$OX..151X.XO$=1<:-#+XXX",
"X.XO#=:1=$O.XX151X.XO$=$OX.X151XX.O$=1:=#OX..",
"X.XO#;1=$OX.o151..XO$=1=$OX..151o.XO$=:;#OX..",
"X.X+$&=$OXXX151X.XO$=1<1=$OX.X151XXXO$=&$+X..",
"...+#*$OXXX151.XXO$=1<3<1=$OXX.151XXXO$*#+...",
"XXX+%$OXXX151X.oO$=1<353<1=$Oo.X151XXXO$%+XXX",
"X.X@$OXXX151XXXO$=1<35553<1=$OXXX151.XXO$@X..",
"X.X@%$OXXX1XXXO$=1<3433333<1=$OXXX1X.oO$%@X..",
"XXX@%&$OX..XXO$=1<<<<,<<<<<>1=$OXXXXXO$&%@XXX",
"XXX+%&:$OoXXO$=1<<<<<<<<<<<,<1=$OXXXO$:&%+XXX",
"o.oX$&2:$OXO$=::::111111111::11=$OXO$:2&$Xo..",
"...X$&&&&$O$*&;=--===-----=-=---=$O$--;&$X...",
" XXXX$####$####################$#%$%%%$$XXXX ",
" XXXXXX@@@@@@+++@+++O+++++O++OO+++@@@+XXXXXX ",
"  XXXX.XX..X....XXXXXXXXXXXXXXXX.XXXXXoXXXX  ",
"   XXXoXXXXX.XXXXXXXXXXXXXXXX....X..XX.XXX   ",
"     X.XX..X....XXXXXXXXXXXXXXXX.XXXXXoX     "
};
