/* XPM */
const char *mouse_cursor_xpm[] = {
/* columns rows colors chars-per-pixel */
"52 52 4 1 ",
"  c #000000",
". c #7C7C7C",
"X c #FFFFFF",
"o c #FF00FF",
/* pixels */
"                                        oooooooooooo",
"                                        oooooooooooo",
"                                        oooooooooooo",
"                                        oooooooooooo",
"    XXXXXXXXXXXXXXXXXXXXXXXXXXXXXXXX....    oooooooo",
"    XXXXXXXXXXXXXXXXXXXXXXXXXXXXXXXX....    oooooooo",
"    XXXXXXXXXXXXXXXXXXXXXXXXXXXXXXXX....    oooooooo",
"    XXXXXXXXXXXXXXXXXXXXXXXXXXXXXXXX....    oooooooo",
"    XXXX                            XXXX    oooooooo",
"    XXXX                            XXXX    oooooooo",
"    XXXX                            XXXX    oooooooo",
"    XXXX                            XXXX    oooooooo",
"    XXXX                            XXXX    oooooooo",
"    XXXX                            XXXX    oooooooo",
"    XXXX                            XXXX    oooooooo",
"    XXXX                            XXXX    oooooooo",
"    XXXX                XXXXXXXXXXXX....    oooooooo",
"    XXXX                XXXXXXXXXXXX....    oooooooo",
"    XXXX                XXXXXXXXXXXX....    oooooooo",
"    XXXX                XXXXXXXXXXXX....    oooooooo",
"    XXXX                    XXXX        oooooooooooo",
"    XXXX                    XXXX        oooooooooooo",
"    XXXX                    XXXX        oooooooooooo",
"    XXXX                    XXXX        oooooooooooo",
"    XXXX        XXXX            XXXX    oooooooooooo",
"    XXXX        XXXX            XXXX    oooooooooooo",
"    XXXX        XXXX            XXXX    oooooooooooo",
"    XXXX        XXXX            XXXX    oooooooooooo",
"    XXXX        XXXXXXXX            XXXX    oooooooo",
"    XXXX        XXXXXXXX            XXXX    oooooooo",
"    XXXX        XXXXXXXX            XXXX    oooooooo",
"    XXXX        XXXXXXXX            XXXX    oooooooo",
"    XXXX        XXXX    XXXX            XXXX    oooo",
"    XXXX        XXXX    XXXX            XXXX    oooo",
"    XXXX        XXXX    XXXX            XXXX    oooo",
"    XXXX        XXXX    XXXX            XXXX    oooo",
"    ....XXXXXXXX....        XXXX            XXXX    ",
"    ....XXXXXXXX....        XXXX            XXXX    ",
"    ....XXXXXXXX....        XXXX            XXXX    ",
"    ....XXXXXXXX....        XXXX            XXXX    ",
"oooo                oooooooo    XXXX        XXXX    ",
"oooo                oooooooo    XXXX        XXXX    ",
"oooo                oooooooo    XXXX        XXXX    ",
"oooo                oooooooo    XXXX        XXXX    ",
"oooooooooooooooooooooooooooooooo    XXXXXXXX....    ",
"oooooooooooooooooooooooooooooooo    XXXXXXXX....    ",
"oooooooooooooooooooooooooooooooo    XXXXXXXX....    ",
"oooooooooooooooooooooooooooooooo    XXXXXXXX....    ",
"oooooooooooooooooooooooooooooooooooo            oooo",
"oooooooooooooooooooooooooooooooooooo            oooo",
"oooooooooooooooooooooooooooooooooooo            oooo",
"oooooooooooooooooooooooooooooooooooo            oooo"
};

/* XPM */
const char *mouse_cursor_click_xpm[] = {
/* columns rows colors chars-per-pixel */
"40 52 3 1 ",
"  c #FF00FF",
". c #000000",
"X c #FFFFFF",
/* pixels */
"        ....                            ",
"        ....                            ",
"        ....                            ",
"        ....                            ",
"    ....XXXX....                        ",
"    ....XXXX....                        ",
"    ....XXXX....                        ",
"    ....XXXX....                        ",
"    ....XXXX....                        ",
"    ....XXXX....                        ",
"    ....XXXX....                        ",
"    ....XXXX....                        ",
"    ....XXXX....                        ",
"    ....XXXX....                        ",
"    ....XXXX....                        ",
"    ....XXXX....                        ",
"    ....XXXX........................    ",
"    ....XXXX........................    ",
"    ....XXXX........................    ",
"    ....XXXX........................    ",
"........XXXX....XXXX....XXXX....XXXX....",
"........XXXX....XXXX....XXXX....XXXX....",
"........XXXX....XXXX....XXXX....XXXX....",
"........XXXX....XXXX....XXXX....XXXX....",
"........XXXXXXXXXXXXXXXXXXXXXXXXXXXX....",
"........XXXXXXXXXXXXXXXXXXXXXXXXXXXX....",
"........XXXXXXXXXXXXXXXXXXXXXXXXXXXX....",
"........XXXXXXXXXXXXXXXXXXXXXXXXXXXX....",
"....XXXXXXXXXXXXXXXXXXXXXXXXXXXXXXXX....",
"....XXXXXXXXXXXXXXXXXXXXXXXXXXXXXXXX....",
"....XXXXXXXXXXXXXXXXXXXXXXXXXXXXXXXX....",
"....XXXXXXXXXXXXXXXXXXXXXXXXXXXXXXXX....",
"....XXXXXXXX....XXXX....XXXX....XXXX....",
"....XXXXXXXX....XXXX....XXXX....XXXX....",
"....XXXXXXXX....XXXX....XXXX....XXXX....",
"....XXXXXXXX....XXXX....XXXX....XXXX....",
"....XXXXXXXX....XXXX....XXXX....XXXX....",
"....XXXXXXXX....XXXX....XXXX....XXXX....",
"....XXXXXXXX....XXXX....XXXX....XXXX....",
"....XXXXXXXX....XXXX....XXXX....XXXX....",
"....XXXXXXXXXXXXXXXXXXXXXXXXXXXXXXXX....",
"....XXXXXXXXXXXXXXXXXXXXXXXXXXXXXXXX....",
"....XXXXXXXXXXXXXXXXXXXXXXXXXXXXXXXX....",
"....XXXXXXXXXXXXXXXXXXXXXXXXXXXXXXXX....",
"    ....XXXXXXXXXXXXXXXXXXXXXXXX....    ",
"    ....XXXXXXXXXXXXXXXXXXXXXXXX....    ",
"    ....XXXXXXXXXXXXXXXXXXXXXXXX....    ",
"    ....XXXXXXXXXXXXXXXXXXXXXXXX....    ",
"        ........................        ",
"        ........................        ",
"        ........................        ",
"        ........................        "
};

